<svg width="160" height="32" viewBox="0 0 160 32" fill="none" xmlns="http://www.w3.org/2000/svg">
<path d="M52.6176 24.96H48.0864V14.5376C48.0864 12.3968 47.0278 11.3259 44.9104 11.3248C43.2688 11.3248 41.9606 12.0032 40.9856 13.36V24.96H36.4544V7.7216H40.9856V9.9696C42.4843 8.18507 44.4944 7.2928 47.016 7.2928C48.872 7.2928 50.2694 7.7808 51.208 8.7568C52.1467 9.7328 52.6166 11.0768 52.6176 12.7888V24.96Z" fill="#12061B"/>
<path d="M72.5648 24.96H68.032V22.7792C66.4864 24.5168 64.4645 25.3851 61.9664 25.384C60.1104 25.384 58.7189 24.9083 57.792 23.9568C56.8651 23.0053 56.4011 21.672 56.4 19.9568V7.7216H60.9312V18.176C60.9312 20.2944 61.9899 21.3531 64.1072 21.352C65.7008 21.352 67.0091 20.6981 68.032 19.3904V7.7216H72.5648V24.96Z" fill="#12061B"/>
<path d="M86.1953 25.384C84.031 25.384 82.2587 24.504 80.8785 22.744V31.52H76.3473V7.7216H80.8785V9.8976C82.2342 8.16107 84.0065 7.2928 86.1953 7.2928C88.4545 7.2928 90.2923 8.096 91.7089 9.7024C93.1254 11.3088 93.8331 13.5147 93.8321 16.32C93.8321 19.1264 93.1243 21.3387 91.7089 22.9568C90.2934 24.5749 88.4555 25.384 86.1953 25.384ZM84.7681 21.352C86.0758 21.352 87.1286 20.888 87.9265 19.96C88.7243 19.032 89.1222 17.8187 89.1201 16.32C89.1201 14.8448 88.7217 13.6432 87.9249 12.7152C87.1281 11.7872 86.0753 11.3232 84.7665 11.3232C83.9957 11.3342 83.2389 11.5307 82.5601 11.896C81.8956 12.2156 81.3197 12.6936 80.8833 13.288V19.3904C81.3237 19.9876 81.906 20.4655 82.5777 20.7808C83.2523 21.142 84.003 21.3377 84.7681 21.352Z" fill="#12061B"/>
<path d="M100.96 24.96H96.4352V7.7216H100.96V10.08C101.631 9.2484 102.47 8.56749 103.422 8.0816C104.356 7.5746 105.4 7.30482 106.462 7.296V11.7184C106.051 11.6372 105.632 11.6013 105.213 11.6112C104.373 11.6291 103.547 11.8238 102.787 12.1824C101.934 12.5632 101.327 13.0267 100.966 13.5728L100.96 24.96Z" fill="#12061B"/>
<path d="M110.814 5.8656C110.459 5.86947 110.106 5.8005 109.777 5.66292C109.449 5.52535 109.152 5.32207 108.906 5.0656C108.649 4.81851 108.446 4.52158 108.308 4.19305C108.171 3.86453 108.102 3.51135 108.106 3.1552C108.101 2.80182 108.17 2.45136 108.308 2.12587C108.445 1.80039 108.649 1.50694 108.906 1.264C109.418 0.760565 110.107 0.478468 110.826 0.478468C111.544 0.478468 112.233 0.760565 112.746 1.264C112.998 1.50914 113.198 1.80337 113.333 2.12859C113.468 2.45382 113.535 2.80317 113.53 3.1552C113.534 3.50998 113.467 3.862 113.332 4.19024C113.197 4.51847 112.998 4.81619 112.746 5.0656C112.497 5.32563 112.197 5.53105 111.864 5.66877C111.532 5.8065 111.174 5.87353 110.814 5.8656ZM113.099 24.96H108.568V7.7216H113.099V24.96Z" fill="#12061B"/>
<path d="M130.19 24.96H116.131V21.5664L123.91 11.68H116.131V7.7216H130.051V11.0048L122.165 20.9952H130.194L130.19 24.96Z" fill="#12061B"/>
<path d="M159.2 24.96H154.632V14.08C154.632 12.2485 153.776 11.3323 152.064 11.3312C151.335 11.3288 150.621 11.5402 150.011 11.9392C149.424 12.3046 148.909 12.7761 148.494 13.3296V24.96H143.928V14.08C143.928 12.2485 143.071 11.3323 141.358 11.3312C140.636 11.3339 139.93 11.545 139.325 11.9392C138.722 12.3068 138.2 12.7922 137.79 13.3664V24.96H133.259V7.7216H137.79V9.9696C138.217 9.352 138.964 8.75147 140.03 8.168C141.068 7.59343 142.235 7.29225 143.421 7.2928C145.919 7.2928 147.512 8.33973 148.201 10.4336C148.749 9.58027 149.564 8.84267 150.646 8.2208C151.703 7.60929 152.904 7.28907 154.125 7.2928C155.743 7.2928 156.992 7.72693 157.872 8.5952C158.752 9.46347 159.195 10.7659 159.2 12.5024V24.96Z" fill="#12061B"/>
<path d="M26.4432 23.7872L22.4432 16.8688C22.4042 16.801 22.3425 16.7492 22.269 16.7226C22.1955 16.6959 22.115 16.6962 22.0416 16.7232L8.34723 20.7072L18.6432 10.84C18.7034 10.7901 18.7441 10.7205 18.7582 10.6436C18.7722 10.5666 18.7587 10.4872 18.72 10.4192L14.72 3.5008C14.6517 3.38216 14.5533 3.28362 14.4348 3.21511C14.3162 3.14659 14.1817 3.11052 14.0448 3.11052C13.9079 3.11052 13.7734 3.14659 13.6549 3.21511C13.5364 3.28362 13.438 3.38216 13.3696 3.5008L1.66883 23.7872C1.59994 23.9059 1.56354 24.0406 1.56329 24.1778C1.56305 24.315 1.59896 24.4499 1.66742 24.5688C1.73588 24.6877 1.83447 24.7864 1.95325 24.8551C2.07203 24.9238 2.20682 24.96 2.34403 24.96H25.768C25.9054 24.9605 26.0405 24.9246 26.1596 24.856C26.2787 24.7875 26.3775 24.6886 26.446 24.5696C26.5146 24.4505 26.5504 24.3154 26.5499 24.178C26.5494 24.0406 26.5126 23.9058 26.4432 23.7872Z" fill="url(#paint0_linear_1455_6980)"/>
<defs>
<linearGradient id="paint0_linear_1455_6980" x1="1.56323" y1="14.0336" x2="26.5488" y2="14.0336" gradientUnits="userSpaceOnUse">
<stop stop-color="#7B00F9"/>
<stop offset="1" stop-color="#923CFB"/>
</linearGradient>
</defs>
</svg>
